<?xml version="1.0" encoding="UTF-8"?>
<svg width="100pt" height="100pt" version="1.1" viewBox="0 0 100 100" xmlns="http://www.w3.org/2000/svg">
 <path d="m18.113 19.168c-6.9648 0.54688-12.23 6.2109-12.57 13.191-0.28125 5.7539-0.54297 12.371-0.54297 16.941 0 4.6211 0.26953 11.34 0.55078 17.137 0.33594 6.8906 5.4844 12.52 12.355 13.152 7.6055 0.70312 18.609 1.4102 32.094 1.4102 13.449 0 24.434-0.70312 32.035-1.4023 6.8984-0.63672 12.055-6.3008 12.387-13.219 0.29297-6.1055 0.57812-13.086 0.57812-17.078 0-3.9492-0.28125-10.824-0.57031-16.883-0.33203-7.0078-5.6094-12.707-12.602-13.254-7.4883-0.58984-18.285-1.1641-31.828-1.1641-13.578 0-24.395 0.57812-31.887 1.168zm22.887 16.773 23.199 13.359-23.199 13.355z" fill-rule="evenodd"/>
</svg>
