<?xml version="1.0" encoding="UTF-8"?>
<svg width="100pt" height="100pt" version="1.1" viewBox="0 0 100 100" xmlns="http://www.w3.org/2000/svg">
 <g>
  <path d="m56.25 17.191c-5.6875 0-10.816 3.4258-12.992 8.6797-2.1758 5.2539-0.97266 11.305 3.0508 15.324 4.0195 4.0234 10.07 5.2266 15.324 3.0469 5.2539-2.1758 8.6797-7.3008 8.6797-12.988-0.007812-7.7656-6.3008-14.055-14.062-14.062z"/>
  <path d="m66.406 90.68v-43.805l-2.1797 0.94141c-5.2266 2.2773-10.863 3.4531-16.559 3.4609l-1.5742-0.011719v39.414c0.019531 5.1602 4.2148 9.3281 9.375 9.3203h1.5625c5.1602 0.007812 9.3555-4.1602 9.375-9.3203z"/>
  <path d="m85.047 12.094c-4.9531-12.773-23.273-12.109-24.031-12.078-17.25 0.58594-30.711 9.4297-38.938 25.586-3.8125 7.6016-6.2617 15.816-7.2266 24.266-0.023437 0.43359 0.125 0.85547 0.41797 1.1758 0.29297 0.32031 0.70312 0.50781 1.1367 0.51953 0.64844 0 1.2305-0.40234 1.4609-1.0078 8-21.062 19.055-34.25 32.875-39.188 16.75-5.9844 31.914 2.5547 32.07 2.6406 0.57422 0.31641 1.2852 0.24219 1.7812-0.18359s0.67969-1.1133 0.45312-1.7305zm-35.312-3.6797c-11.289 4.0156-20.805 13.055-28.383 26.953 0.98047-2.8906 2.168-5.707 3.5547-8.4297 7.7891-15.242 19.977-23.25 36.227-23.797 0.015626-0.007813 0.21094-0.007813 0.54688-0.007813 2.4375 0 12.344 0.35156 17.781 5.9375-6.1719-2.3203-17.422-5.0391-29.727-0.65625z"/>
 </g>
</svg>
