<?xml version="1.0" encoding="UTF-8"?>
<svg xmlns="http://www.w3.org/2000/svg" xmlns:xlink="http://www.w3.org/1999/xlink" width="96px" height="96px" viewBox="0 0 96 96" version="1.1">
<g id="surface1">
<path style=" stroke:none;fill-rule:nonzero;fill:rgb(100%,50.588235%,29.019608%);fill-opacity:1;" d="M 6.167969 81.4375 C 5.792969 81.4375 5.441406 81.21875 5.289062 80.859375 L 2.515625 74.488281 C 2.324219 74.050781 2.484375 73.542969 2.890625 73.289062 L 13.019531 67.007812 L 10.617188 63.117188 C 10.511719 62.949219 10.460938 62.75 10.472656 62.554688 L 13.382812 15.460938 C 13.414062 14.945312 13.875 14.582031 14.363281 14.5625 L 92.0625 16.359375 C 92.582031 16.371094 92.992188 16.792969 93 17.304688 L 93.554688 54.699219 C 93.558594 54.980469 93.4375 55.25 93.234375 55.433594 C 92.722656 55.886719 91.304688 57.4375 91.46875 58.59375 C 91.546875 59.125 91.410156 59.617188 91.082031 60.011719 C 90.242188 61.003906 88.386719 61.050781 86.042969 61.109375 C 84.832031 61.140625 83.578125 61.167969 82.5 61.34375 C 81.152344 61.558594 80.03125 61.535156 79.042969 61.519531 C 77.40625 61.488281 76.101562 61.460938 74.21875 62.484375 C 70.984375 64.242188 66.78125 65.375 63.515625 65.375 C 62.246094 65.375 60.992188 65.132812 59.777344 64.898438 C 58.0625 64.566406 56.285156 64.226562 54.386719 64.53125 C 53.144531 64.726562 51.910156 65.046875 50.710938 65.351562 C 48.640625 65.882812 46.5 66.4375 44.359375 66.339844 C 42.929688 66.28125 41.964844 65.660156 41.257812 65.203125 C 40.246094 64.550781 39.9375 64.355469 38.472656 66.015625 C 38.109375 66.425781 37.765625 66.816406 37.441406 67.1875 C 34.882812 70.117188 33.34375 71.878906 30.042969 73.066406 C 28.421875 73.652344 26.84375 73.683594 25.316406 73.714844 C 23.410156 73.75 21.609375 73.785156 19.847656 74.914062 C 18.90625 75.515625 18.015625 76.121094 17.167969 76.691406 C 14.859375 78.253906 12.863281 79.609375 11.011719 80.152344 C 8.664062 80.84375 6.425781 81.40625 6.402344 81.410156 C 6.324219 81.425781 6.246094 81.4375 6.167969 81.4375 Z M 4.613281 74.484375 L 6.722656 79.347656 C 7.570312 79.125 9 78.746094 10.46875 78.3125 C 12.039062 77.851562 13.917969 76.578125 16.089844 75.101562 C 16.949219 74.519531 17.855469 73.910156 18.808594 73.296875 C 21.027344 71.878906 23.1875 71.839844 25.277344 71.796875 C 26.710938 71.765625 28.070312 71.746094 29.390625 71.265625 C 32.222656 70.246094 33.5625 68.710938 35.996094 65.929688 C 36.324219 65.558594 36.667969 65.160156 37.035156 64.746094 C 39.402344 62.070312 40.820312 62.640625 42.296875 63.59375 C 42.929688 64 43.53125 64.382812 44.441406 64.425781 C 46.308594 64.503906 48.210938 64.015625 50.230469 63.496094 C 51.46875 63.175781 52.746094 62.847656 54.078125 62.636719 C 56.308594 62.28125 58.339844 62.671875 60.132812 63.015625 C 61.3125 63.242188 62.425781 63.457031 63.511719 63.457031 C 66.480469 63.457031 70.328125 62.414062 73.300781 60.800781 C 75.628906 59.542969 77.304688 59.570312 79.074219 59.605469 C 80.03125 59.621094 81.011719 59.644531 82.195312 59.453125 C 83.398438 59.261719 84.71875 59.226562 85.996094 59.195312 C 87.234375 59.164062 89.089844 59.113281 89.5625 58.816406 C 89.328125 56.871094 90.898438 55.046875 91.628906 54.3125 L 91.097656 18.257812 L 15.242188 16.5 L 12.410156 62.367188 L 15.160156 66.816406 C 15.4375 67.265625 15.300781 67.859375 14.847656 68.136719 Z M 4.613281 74.484375 "/>
</g>
</svg>
